<mxfile host="app.diagrams.net" modified="2023-05-13T02:13:36.224Z" agent="Mozilla/5.0 (Macintosh; Intel Mac OS X 10_15_7) AppleWebKit/537.36 (KHTML, like Gecko) Chrome/112.0.0.0 Safari/537.36" version="21.3.0" etag="k8P5pYVpekO9SZfWN5sK" type="github">
  <diagram name="페이지-1" id="9YIsKJH5JMf0_q57aAnA">
    <mxGraphModel>
      <root>
        <mxCell id="0" />
        <mxCell id="1" parent="0" />
      </root>
    </mxGraphModel>
  </diagram>
</mxfile>
